<svg width="1920" height="912" xmlns="http://www.w3.org/2000/svg"><g><path d="M-125,-41L-96,1149L-91,471Z" fill="#a4e4b4" stroke="#a4e4b4" fill-opacity="1" stroke-opacity="1"/><path d="M-125,-41L-91,471L-20,205Z" fill="#e5fee0" stroke="#e5fee0" fill-opacity="1" stroke-opacity="1"/><path d="M-125,-41L-20,205L-24,80Z" fill="#f5fdf0" stroke="#f5fdf0" fill-opacity="1" stroke-opacity="1"/><path d="M-125,-41L-24,80L111,-78Z" fill="#f7fcf5" stroke="#f7fcf5" fill-opacity="1" stroke-opacity="1"/><path d="M-125,-41L111,-78L281,-121Z" fill="#f0f9ee" stroke="#f0f9ee" fill-opacity="1" stroke-opacity="1"/><path d="M111,-78L-24,80L113,88Z" fill="#f0faec" stroke="#f0faec" fill-opacity="1" stroke-opacity="1"/><path d="M111,-78L113,88L244,25Z" fill="#eaf7e8" stroke="#eaf7e8" fill-opacity="1" stroke-opacity="1"/><path d="M111,-78L244,25L281,-121Z" fill="#e8f6e4" stroke="#e8f6e4" fill-opacity="1" stroke-opacity="1"/><path d="M281,-121L244,25L348,33Z" fill="#e2f4df" stroke="#e2f4df" fill-opacity="1" stroke-opacity="1"/><path d="M281,-121L348,33L377,-107Z" fill="#dff2dc" stroke="#dff2dc" fill-opacity="1" stroke-opacity="1"/><path d="M281,-121L377,-107L508,-121Z" fill="#dbf1d8" stroke="#dbf1d8" fill-opacity="1" stroke-opacity="1"/><path d="M281,-121L508,-121L1424,-131Z" fill="#c1e5c0" stroke="#c1e5c0" fill-opacity="1" stroke-opacity="1"/><path d="M377,-107L348,33L508,54Z" fill="#daf0d7" stroke="#daf0d7" fill-opacity="1" stroke-opacity="1"/><path d="M377,-107L508,54L508,-121Z" fill="#d6efd3" stroke="#d6efd3" fill-opacity="1" stroke-opacity="1"/><path d="M508,-121L508,54L615,-37Z" fill="#d1ecce" stroke="#d1ecce" fill-opacity="1" stroke-opacity="1"/><path d="M508,-121L615,-37L843,-52Z" fill="#c7e8c6" stroke="#c7e8c6" fill-opacity="1" stroke-opacity="1"/><path d="M508,-121L843,-52L1139,-78Z" fill="#b9e1ba" stroke="#b9e1ba" fill-opacity="1" stroke-opacity="1"/><path d="M508,-121L1139,-78L1424,-131Z" fill="#a7d9b2" stroke="#a7d9b2" fill-opacity="1" stroke-opacity="1"/><path d="M615,-37L508,54L717,66Z" fill="#c9eac6" stroke="#c9eac6" fill-opacity="1" stroke-opacity="1"/><path d="M615,-37L717,66L843,-52Z" fill="#c2e5c1" stroke="#c2e5c1" fill-opacity="1" stroke-opacity="1"/><path d="M843,-52L717,66L820,110Z" fill="#b9e3b9" stroke="#b9e3b9" fill-opacity="1" stroke-opacity="1"/><path d="M843,-52L820,110L982,82Z" fill="#b1dfb4" stroke="#b1dfb4" fill-opacity="1" stroke-opacity="1"/><path d="M843,-52L982,82L1006,-53Z" fill="#afdcb5" stroke="#afdcb5" fill-opacity="1" stroke-opacity="1"/><path d="M843,-52L1006,-53L1139,-78Z" fill="#aadab3" stroke="#aadab3" fill-opacity="1" stroke-opacity="1"/><path d="M1006,-53L982,82L1072,94Z" fill="#a4d9ae" stroke="#a4d9ae" fill-opacity="1" stroke-opacity="1"/><path d="M1006,-53L1072,94L1139,-78Z" fill="#a3d6af" stroke="#a3d6af" fill-opacity="1" stroke-opacity="1"/><path d="M1139,-78L1072,94L1225,-78Z" fill="#9ed2ac" stroke="#9ed2ac" fill-opacity="1" stroke-opacity="1"/><path d="M1139,-78L1225,-78L1424,-131Z" fill="#97cca7" stroke="#97cca7" fill-opacity="1" stroke-opacity="1"/><path d="M1225,-78L1072,94L1334,22Z" fill="#99cfa8" stroke="#99cfa8" fill-opacity="1" stroke-opacity="1"/><path d="M1225,-78L1334,22L1424,-131Z" fill="#94c8a4" stroke="#94c8a4" fill-opacity="1" stroke-opacity="1"/><path d="M1424,-131L1334,22L1529,-23Z" fill="#8ec0a0" stroke="#8ec0a0" fill-opacity="1" stroke-opacity="1"/><path d="M1424,-131L1529,-23L1822,-129Z" fill="#83b29b" stroke="#83b29b" fill-opacity="1" stroke-opacity="1"/><path d="M1529,-23L1334,22L1413,77Z" fill="#8cc09e" stroke="#8cc09e" fill-opacity="1" stroke-opacity="1"/><path d="M1529,-23L1413,77L1586,59Z" fill="#86b999" stroke="#86b999" fill-opacity="1" stroke-opacity="1"/><path d="M1529,-23L1586,59L1713,-20Z" fill="#82b09a" stroke="#82b09a" fill-opacity="1" stroke-opacity="1"/><path d="M1529,-23L1713,-20L1822,-129Z" fill="#80a997" stroke="#80a997" fill-opacity="1" stroke-opacity="1"/><path d="M1713,-20L1586,59L1724,99Z" fill="#7daa93" stroke="#7daa93" fill-opacity="1" stroke-opacity="1"/><path d="M1713,-20L1724,99L1919,71Z" fill="#7ca08f" stroke="#7ca08f" fill-opacity="1" stroke-opacity="1"/><path d="M1713,-20L1919,71L1822,-129Z" fill="#809d93" stroke="#809d93" fill-opacity="1" stroke-opacity="1"/><path d="M1822,-129L1919,71L2013,-86Z" fill="#80948f" stroke="#80948f" fill-opacity="1" stroke-opacity="1"/><path d="M2013,-86L1919,71L2063,44Z" fill="#7f8d8c" stroke="#7f8d8c" fill-opacity="1" stroke-opacity="1"/><path d="M-24,80L-20,205L113,88Z" fill="#ecfbe6" stroke="#ecfbe6" fill-opacity="1" stroke-opacity="1"/><path d="M113,88L-20,205L65,242Z" fill="#e1fadb" stroke="#e1fadb" fill-opacity="1" stroke-opacity="1"/><path d="M113,88L65,242L174,261Z" fill="#daf9d3" stroke="#daf9d3" fill-opacity="1" stroke-opacity="1"/><path d="M113,88L174,261L244,25Z" fill="#e1f7db" stroke="#e1f7db" fill-opacity="1" stroke-opacity="1"/><path d="M244,25L174,261L336,216Z" fill="#d5f5ce" stroke="#d5f5ce" fill-opacity="1" stroke-opacity="1"/><path d="M244,25L336,216L348,33Z" fill="#daf3d4" stroke="#daf3d4" fill-opacity="1" stroke-opacity="1"/><path d="M348,33L336,216L508,54Z" fill="#d4f1cd" stroke="#d4f1cd" fill-opacity="1" stroke-opacity="1"/><path d="M508,54L336,216L518,199Z" fill="#c9efc2" stroke="#c9efc2" fill-opacity="1" stroke-opacity="1"/><path d="M508,54L518,199L660,216Z" fill="#c2ecbb" stroke="#c2ecbb" fill-opacity="1" stroke-opacity="1"/><path d="M508,54L660,216L717,66Z" fill="#c2e9bd" stroke="#c2e9bd" fill-opacity="1" stroke-opacity="1"/><path d="M717,66L660,216L820,110Z" fill="#b8e5b4" stroke="#b8e5b4" fill-opacity="1" stroke-opacity="1"/><path d="M820,110L660,216L841,280Z" fill="#a8e4a5" stroke="#a8e4a5" fill-opacity="1" stroke-opacity="1"/><path d="M820,110L841,280L982,82Z" fill="#a7dfa7" stroke="#a7dfa7" fill-opacity="1" stroke-opacity="1"/><path d="M982,82L841,280L1035,220Z" fill="#9adc9d" stroke="#9adc9d" fill-opacity="1" stroke-opacity="1"/><path d="M982,82L1035,220L1072,94Z" fill="#9dd8a4" stroke="#9dd8a4" fill-opacity="1" stroke-opacity="1"/><path d="M1072,94L1035,220L1159,245Z" fill="#8fd698" stroke="#8fd698" fill-opacity="1" stroke-opacity="1"/><path d="M1072,94L1159,245L1284,210Z" fill="#8ad195" stroke="#8ad195" fill-opacity="1" stroke-opacity="1"/><path d="M1072,94L1284,210L1334,22Z" fill="#91ce9d" stroke="#91ce9d" fill-opacity="1" stroke-opacity="1"/><path d="M1334,22L1284,210L1413,77Z" fill="#8cc799" stroke="#8cc799" fill-opacity="1" stroke-opacity="1"/><path d="M1413,77L1284,210L1437,212Z" fill="#82c58f" stroke="#82c58f" fill-opacity="1" stroke-opacity="1"/><path d="M1413,77L1437,212L1592,191Z" fill="#7cbb8c" stroke="#7cbb8c" fill-opacity="1" stroke-opacity="1"/><path d="M1413,77L1592,191L1586,59Z" fill="#80b792" stroke="#80b792" fill-opacity="1" stroke-opacity="1"/><path d="M1586,59L1592,191L1724,99Z" fill="#78ae8e" stroke="#78ae8e" fill-opacity="1" stroke-opacity="1"/><path d="M1724,99L1592,191L1728,195Z" fill="#71aa85" stroke="#71aa85" fill-opacity="1" stroke-opacity="1"/><path d="M1724,99L1728,195L1860,214Z" fill="#70a281" stroke="#70a281" fill-opacity="1" stroke-opacity="1"/><path d="M1724,99L1860,214L1919,71Z" fill="#779c85" stroke="#779c85" fill-opacity="1" stroke-opacity="1"/><path d="M1919,71L1860,214L2031,199Z" fill="#71937d" stroke="#71937d" fill-opacity="1" stroke-opacity="1"/><path d="M1919,71L2031,199L2063,44Z" fill="#798d82" stroke="#798d82" fill-opacity="1" stroke-opacity="1"/><path d="M2063,44L2031,199L2033,390Z" fill="#698971" stroke="#698971" fill-opacity="1" stroke-opacity="1"/><path d="M2063,44L2033,390L2071,686Z" fill="#497f55" stroke="#497f55" fill-opacity="1" stroke-opacity="1"/><path d="M2063,44L2071,686L2083,844Z" fill="#266d41" stroke="#266d41" fill-opacity="1" stroke-opacity="1"/><path d="M-20,205L-91,471L-17,422Z" fill="#c4f4c2" stroke="#c4f4c2" fill-opacity="1" stroke-opacity="1"/><path d="M-20,205L-17,422L65,242Z" fill="#d0f9cc" stroke="#d0f9cc" fill-opacity="1" stroke-opacity="1"/><path d="M65,242L-17,422L100,351Z" fill="#c3f4c1" stroke="#c3f4c1" fill-opacity="1" stroke-opacity="1"/><path d="M65,242L100,351L174,261Z" fill="#caf7c5" stroke="#caf7c5" fill-opacity="1" stroke-opacity="1"/><path d="M174,261L100,351L251,416Z" fill="#baf0b6" stroke="#baf0b6" fill-opacity="1" stroke-opacity="1"/><path d="M174,261L251,416L336,216Z" fill="#bef2b8" stroke="#bef2b8" fill-opacity="1" stroke-opacity="1"/><path d="M336,216L251,416L408,399Z" fill="#afecab" stroke="#afecab" fill-opacity="1" stroke-opacity="1"/><path d="M336,216L408,399L518,199Z" fill="#b8efb1" stroke="#b8efb1" fill-opacity="1" stroke-opacity="1"/><path d="M518,199L408,399L513,381Z" fill="#a8e9a4" stroke="#a8e9a4" fill-opacity="1" stroke-opacity="1"/><path d="M518,199L513,381L660,216Z" fill="#afeba8" stroke="#afeba8" fill-opacity="1" stroke-opacity="1"/><path d="M660,216L513,381L680,394Z" fill="#9de49a" stroke="#9de49a" fill-opacity="1" stroke-opacity="1"/><path d="M660,216L680,394L841,280Z" fill="#9be298" stroke="#9be298" fill-opacity="1" stroke-opacity="1"/><path d="M841,280L680,394L849,361Z" fill="#8bdc8b" stroke="#8bdc8b" fill-opacity="1" stroke-opacity="1"/><path d="M841,280L849,361L948,395Z" fill="#83d887" stroke="#83d887" fill-opacity="1" stroke-opacity="1"/><path d="M841,280L948,395L1035,220Z" fill="#87d98c" stroke="#87d98c" fill-opacity="1" stroke-opacity="1"/><path d="M1035,220L948,395L1076,392Z" fill="#78d382" stroke="#78d382" fill-opacity="1" stroke-opacity="1"/><path d="M1035,220L1076,392L1159,245Z" fill="#7cd488" stroke="#7cd488" fill-opacity="1" stroke-opacity="1"/><path d="M1159,245L1076,392L1245,421Z" fill="#6aca79" stroke="#6aca79" fill-opacity="1" stroke-opacity="1"/><path d="M1159,245L1245,421L1284,210Z" fill="#73cb80" stroke="#73cb80" fill-opacity="1" stroke-opacity="1"/><path d="M1284,210L1245,421L1452,319Z" fill="#69c378" stroke="#69c378" fill-opacity="1" stroke-opacity="1"/><path d="M1284,210L1452,319L1437,212Z" fill="#73c481" stroke="#73c481" fill-opacity="1" stroke-opacity="1"/><path d="M1437,212L1452,319L1592,191Z" fill="#6dba7f" stroke="#6dba7f" fill-opacity="1" stroke-opacity="1"/><path d="M1592,191L1452,319L1587,373Z" fill="#60b374" stroke="#60b374" fill-opacity="1" stroke-opacity="1"/><path d="M1592,191L1587,373L1697,347Z" fill="#59ab6f" stroke="#59ab6f" fill-opacity="1" stroke-opacity="1"/><path d="M1592,191L1697,347L1728,195Z" fill="#63aa77" stroke="#63aa77" fill-opacity="1" stroke-opacity="1"/><path d="M1728,195L1697,347L1860,214Z" fill="#62a273" stroke="#62a273" fill-opacity="1" stroke-opacity="1"/><path d="M1860,214L1697,347L1909,397Z" fill="#549966" stroke="#549966" fill-opacity="1" stroke-opacity="1"/><path d="M1860,214L1909,397L2031,199Z" fill="#5e926a" stroke="#5e926a" fill-opacity="1" stroke-opacity="1"/><path d="M2031,199L1909,397L2033,390Z" fill="#52885e" stroke="#52885e" fill-opacity="1" stroke-opacity="1"/><path d="M-17,422L-91,471L21,551Z" fill="#a9e8b3" stroke="#a9e8b3" fill-opacity="1" stroke-opacity="1"/><path d="M-17,422L21,551L100,351Z" fill="#adeab3" stroke="#adeab3" fill-opacity="1" stroke-opacity="1"/><path d="M100,351L21,551L234,542Z" fill="#9fe4a8" stroke="#9fe4a8" fill-opacity="1" stroke-opacity="1"/><path d="M100,351L234,542L251,416Z" fill="#a4e7a8" stroke="#a4e7a8" fill-opacity="1" stroke-opacity="1"/><path d="M251,416L234,542L361,489Z" fill="#93df9c" stroke="#93df9c" fill-opacity="1" stroke-opacity="1"/><path d="M251,416L361,489L408,399Z" fill="#9ae39d" stroke="#9ae39d" fill-opacity="1" stroke-opacity="1"/><path d="M408,399L361,489L526,541Z" fill="#8adb92" stroke="#8adb92" fill-opacity="1" stroke-opacity="1"/><path d="M408,399L526,541L513,381Z" fill="#8fde93" stroke="#8fde93" fill-opacity="1" stroke-opacity="1"/><path d="M513,381L526,541L618,472Z" fill="#84d98b" stroke="#84d98b" fill-opacity="1" stroke-opacity="1"/><path d="M513,381L618,472L680,394Z" fill="#8bdd8e" stroke="#8bdd8e" fill-opacity="1" stroke-opacity="1"/><path d="M680,394L618,472L822,559Z" fill="#75d280" stroke="#75d280" fill-opacity="1" stroke-opacity="1"/><path d="M680,394L822,559L849,361Z" fill="#77d37f" stroke="#77d37f" fill-opacity="1" stroke-opacity="1"/><path d="M849,361L822,559L948,395Z" fill="#70cf7a" stroke="#70cf7a" fill-opacity="1" stroke-opacity="1"/><path d="M948,395L822,559L1003,566Z" fill="#5bc570" stroke="#5bc570" fill-opacity="1" stroke-opacity="1"/><path d="M948,395L1003,566L1076,392Z" fill="#60c872" stroke="#60c872" fill-opacity="1" stroke-opacity="1"/><path d="M1076,392L1003,566L1148,574Z" fill="#4cbe68" stroke="#4cbe68" fill-opacity="1" stroke-opacity="1"/><path d="M1076,392L1148,574L1245,421Z" fill="#52bf6b" stroke="#52bf6b" fill-opacity="1" stroke-opacity="1"/><path d="M1245,421L1148,574L1275,585Z" fill="#3fb360" stroke="#3fb360" fill-opacity="1" stroke-opacity="1"/><path d="M1245,421L1275,585L1452,566Z" fill="#3aae5c" stroke="#3aae5c" fill-opacity="1" stroke-opacity="1"/><path d="M1245,421L1452,566L1452,319Z" fill="#4cb564" stroke="#4cb564" fill-opacity="1" stroke-opacity="1"/><path d="M1452,319L1452,566L1587,373Z" fill="#48ac61" stroke="#48ac61" fill-opacity="1" stroke-opacity="1"/><path d="M1587,373L1452,566L1552,557Z" fill="#34a057" stroke="#34a057" fill-opacity="1" stroke-opacity="1"/><path d="M1587,373L1552,557L1779,511Z" fill="#319855" stroke="#319855" fill-opacity="1" stroke-opacity="1"/><path d="M1587,373L1779,511L1697,347Z" fill="#419d5c" stroke="#419d5c" fill-opacity="1" stroke-opacity="1"/><path d="M1697,347L1779,511L1909,397Z" fill="#3f9258" stroke="#3f9258" fill-opacity="1" stroke-opacity="1"/><path d="M1909,397L1779,511L1909,528Z" fill="#31854e" stroke="#31854e" fill-opacity="1" stroke-opacity="1"/><path d="M1909,397L1909,528L1974,543Z" fill="#2e7d4a" stroke="#2e7d4a" fill-opacity="1" stroke-opacity="1"/><path d="M1909,397L1974,543L2033,390Z" fill="#397f4e" stroke="#397f4e" fill-opacity="1" stroke-opacity="1"/><path d="M2033,390L1974,543L2071,686Z" fill="#246f42" stroke="#246f42" fill-opacity="1" stroke-opacity="1"/><path d="M-91,471L-96,1149L-57,799Z" fill="#7cae96" stroke="#7cae96" fill-opacity="1" stroke-opacity="1"/><path d="M-91,471L-57,799L-60,625Z" fill="#93d4a5" stroke="#93d4a5" fill-opacity="1" stroke-opacity="1"/><path d="M-91,471L-60,625L21,551Z" fill="#9cdfac" stroke="#9cdfac" fill-opacity="1" stroke-opacity="1"/><path d="M21,551L-60,625L108,653Z" fill="#90d5a1" stroke="#90d5a1" fill-opacity="1" stroke-opacity="1"/><path d="M21,551L108,653L234,542Z" fill="#8cd69c" stroke="#8cd69c" fill-opacity="1" stroke-opacity="1"/><path d="M234,542L108,653L269,677Z" fill="#81ce92" stroke="#81ce92" fill-opacity="1" stroke-opacity="1"/><path d="M234,542L269,677L361,489Z" fill="#83d391" stroke="#83d391" fill-opacity="1" stroke-opacity="1"/><path d="M361,489L269,677L318,704Z" fill="#79cb89" stroke="#79cb89" fill-opacity="1" stroke-opacity="1"/><path d="M361,489L318,704L526,541Z" fill="#79cf89" stroke="#79cf89" fill-opacity="1" stroke-opacity="1"/><path d="M526,541L318,704L582,662Z" fill="#6cc47e" stroke="#6cc47e" fill-opacity="1" stroke-opacity="1"/><path d="M526,541L582,662L618,472Z" fill="#70cc7f" stroke="#70cc7f" fill-opacity="1" stroke-opacity="1"/><path d="M618,472L582,662L714,708Z" fill="#63c275" stroke="#63c275" fill-opacity="1" stroke-opacity="1"/><path d="M618,472L714,708L822,559Z" fill="#61c473" stroke="#61c473" fill-opacity="1" stroke-opacity="1"/><path d="M822,559L714,708L884,730Z" fill="#4eb364" stroke="#4eb364" fill-opacity="1" stroke-opacity="1"/><path d="M822,559L884,730L1003,566Z" fill="#4cb764" stroke="#4cb764" fill-opacity="1" stroke-opacity="1"/><path d="M1003,566L884,730L967,721Z" fill="#3fab5c" stroke="#3fab5c" fill-opacity="1" stroke-opacity="1"/><path d="M1003,566L967,721L1083,663Z" fill="#3dac5b" stroke="#3dac5b" fill-opacity="1" stroke-opacity="1"/><path d="M1003,566L1083,663L1148,574Z" fill="#3eb15e" stroke="#3eb15e" fill-opacity="1" stroke-opacity="1"/><path d="M1148,574L1083,663L1171,768Z" fill="#31a355" stroke="#31a355" fill-opacity="1" stroke-opacity="1"/><path d="M1148,574L1171,768L1296,623Z" fill="#2fa153" stroke="#2fa153" fill-opacity="1" stroke-opacity="1"/><path d="M1148,574L1296,623L1275,585Z" fill="#35a958" stroke="#35a958" fill-opacity="1" stroke-opacity="1"/><path d="M1275,585L1296,623L1452,566Z" fill="#30a454" stroke="#30a454" fill-opacity="1" stroke-opacity="1"/><path d="M1452,566L1296,623L1477,714Z" fill="#26984c" stroke="#26984c" fill-opacity="1" stroke-opacity="1"/><path d="M1452,566L1477,714L1523,700Z" fill="#1e8d47" stroke="#1e8d47" fill-opacity="1" stroke-opacity="1"/><path d="M1452,566L1523,700L1552,557Z" fill="#23934c" stroke="#23934c" fill-opacity="1" stroke-opacity="1"/><path d="M1552,557L1523,700L1712,631Z" fill="#1b8846" stroke="#1b8846" fill-opacity="1" stroke-opacity="1"/><path d="M1552,557L1712,631L1779,511Z" fill="#218a4b" stroke="#218a4b" fill-opacity="1" stroke-opacity="1"/><path d="M1779,511L1712,631L1858,676Z" fill="#1b7a42" stroke="#1b7a42" fill-opacity="1" stroke-opacity="1"/><path d="M1779,511L1858,676L1909,528Z" fill="#207a44" stroke="#207a44" fill-opacity="1" stroke-opacity="1"/><path d="M1909,528L1858,676L1974,543Z" fill="#1e7240" stroke="#1e7240" fill-opacity="1" stroke-opacity="1"/><path d="M1974,543L1858,676L2071,686Z" fill="#176639" stroke="#176639" fill-opacity="1" stroke-opacity="1"/><path d="M-60,625L-57,799L108,653Z" fill="#85c69a" stroke="#85c69a" fill-opacity="1" stroke-opacity="1"/><path d="M108,653L-57,799L110,863Z" fill="#75b38f" stroke="#75b38f" fill-opacity="1" stroke-opacity="1"/><path d="M108,653L110,863L243,771Z" fill="#6fb288" stroke="#6fb288" fill-opacity="1" stroke-opacity="1"/><path d="M108,653L243,771L269,677Z" fill="#75bf8a" stroke="#75bf8a" fill-opacity="1" stroke-opacity="1"/><path d="M269,677L243,771L318,704Z" fill="#6eb983" stroke="#6eb983" fill-opacity="1" stroke-opacity="1"/><path d="M318,704L243,771L317,782Z" fill="#67b07f" stroke="#67b07f" fill-opacity="1" stroke-opacity="1"/><path d="M318,704L317,782L506,860Z" fill="#5ca777" stroke="#5ca777" fill-opacity="1" stroke-opacity="1"/><path d="M318,704L506,860L582,662Z" fill="#5cae74" stroke="#5cae74" fill-opacity="1" stroke-opacity="1"/><path d="M582,662L506,860L718,766Z" fill="#4fa569" stroke="#4fa569" fill-opacity="1" stroke-opacity="1"/><path d="M582,662L718,766L714,708Z" fill="#52ae69" stroke="#52ae69" fill-opacity="1" stroke-opacity="1"/><path d="M714,708L718,766L884,730Z" fill="#46a460" stroke="#46a460" fill-opacity="1" stroke-opacity="1"/><path d="M884,730L718,766L769,830Z" fill="#3e9a5b" stroke="#3e9a5b" fill-opacity="1" stroke-opacity="1"/><path d="M884,730L769,830L954,823Z" fill="#369356" stroke="#369356" fill-opacity="1" stroke-opacity="1"/><path d="M884,730L954,823L967,721Z" fill="#339856" stroke="#339856" fill-opacity="1" stroke-opacity="1"/><path d="M967,721L954,823L1171,768Z" fill="#289150" stroke="#289150" fill-opacity="1" stroke-opacity="1"/><path d="M967,721L1171,768L1083,663Z" fill="#2d9b53" stroke="#2d9b53" fill-opacity="1" stroke-opacity="1"/><path d="M1296,623L1171,768L1217,792Z" fill="#22904c" stroke="#22904c" fill-opacity="1" stroke-opacity="1"/><path d="M1296,623L1217,792L1374,825Z" fill="#1b8847" stroke="#1b8847" fill-opacity="1" stroke-opacity="1"/><path d="M1296,623L1374,825L1477,714Z" fill="#1b8845" stroke="#1b8845" fill-opacity="1" stroke-opacity="1"/><path d="M1477,714L1374,825L1588,884Z" fill="#0b6c3a" stroke="#0b6c3a" fill-opacity="1" stroke-opacity="1"/><path d="M1477,714L1588,884L1523,700Z" fill="#0a713c" stroke="#0a713c" fill-opacity="1" stroke-opacity="1"/><path d="M1523,700L1588,884L1710,790Z" fill="#036437" stroke="#036437" fill-opacity="1" stroke-opacity="1"/><path d="M1523,700L1710,790L1712,631Z" fill="#0c743d" stroke="#0c743d" fill-opacity="1" stroke-opacity="1"/><path d="M1712,631L1710,790L1858,676Z" fill="#0d6b3a" stroke="#0d6b3a" fill-opacity="1" stroke-opacity="1"/><path d="M1858,676L1710,790L1884,802Z" fill="#045933" stroke="#045933" fill-opacity="1" stroke-opacity="1"/><path d="M1858,676L1884,802L2071,686Z" fill="#0a5632" stroke="#0a5632" fill-opacity="1" stroke-opacity="1"/><path d="M2071,686L1884,802L2083,844Z" fill="#01432b" stroke="#01432b" fill-opacity="1" stroke-opacity="1"/><path d="M-57,799L-96,1149L-51,942Z" fill="#7b8b87" stroke="#7b8b87" fill-opacity="1" stroke-opacity="1"/><path d="M-57,799L-51,942L110,863Z" fill="#779e8b" stroke="#779e8b" fill-opacity="1" stroke-opacity="1"/><path d="M110,863L-51,942L129,1030Z" fill="#728b7f" stroke="#728b7f" fill-opacity="1" stroke-opacity="1"/><path d="M110,863L129,1030L268,947Z" fill="#6b8877" stroke="#6b8877" fill-opacity="1" stroke-opacity="1"/><path d="M110,863L268,947L243,771Z" fill="#689a7c" stroke="#689a7c" fill-opacity="1" stroke-opacity="1"/><path d="M243,771L268,947L317,782Z" fill="#649f79" stroke="#649f79" fill-opacity="1" stroke-opacity="1"/><path d="M317,782L268,947L378,979Z" fill="#618d70" stroke="#618d70" fill-opacity="1" stroke-opacity="1"/><path d="M317,782L378,979L506,860Z" fill="#5b926d" stroke="#5b926d" fill-opacity="1" stroke-opacity="1"/><path d="M506,860L378,979L549,916Z" fill="#568564" stroke="#568564" fill-opacity="1" stroke-opacity="1"/><path d="M506,860L549,916L718,766Z" fill="#4d9262" stroke="#4d9262" fill-opacity="1" stroke-opacity="1"/><path d="M718,766L549,916L769,830Z" fill="#46915d" stroke="#46915d" fill-opacity="1" stroke-opacity="1"/><path d="M769,830L549,916L649,998Z" fill="#488059" stroke="#488059" fill-opacity="1" stroke-opacity="1"/><path d="M769,830L649,998L767,1019Z" fill="#427550" stroke="#427550" fill-opacity="1" stroke-opacity="1"/><path d="M769,830L767,1019L954,823Z" fill="#3a7f4f" stroke="#3a7f4f" fill-opacity="1" stroke-opacity="1"/><path d="M954,823L767,1019L988,985Z" fill="#337047" stroke="#337047" fill-opacity="1" stroke-opacity="1"/><path d="M954,823L988,985L1171,768Z" fill="#267c48" stroke="#267c48" fill-opacity="1" stroke-opacity="1"/><path d="M1171,768L988,985L1104,1022Z" fill="#226b40" stroke="#226b40" fill-opacity="1" stroke-opacity="1"/><path d="M1171,768L1104,1022L1217,792Z" fill="#1d7542" stroke="#1d7542" fill-opacity="1" stroke-opacity="1"/><path d="M1217,792L1104,1022L1297,937Z" fill="#1b663b" stroke="#1b663b" fill-opacity="1" stroke-opacity="1"/><path d="M1217,792L1297,937L1374,825Z" fill="#16703e" stroke="#16703e" fill-opacity="1" stroke-opacity="1"/><path d="M1374,825L1297,937L1476,993Z" fill="#115b34" stroke="#115b34" fill-opacity="1" stroke-opacity="1"/><path d="M1374,825L1476,993L1544,960Z" fill="#0c5231" stroke="#0c5231" fill-opacity="1" stroke-opacity="1"/><path d="M1374,825L1544,960L1588,884Z" fill="#095732" stroke="#095732" fill-opacity="1" stroke-opacity="1"/><path d="M1588,884L1544,960L1706,1009Z" fill="#023f29" stroke="#023f29" fill-opacity="1" stroke-opacity="1"/><path d="M1588,884L1706,1009L1710,790Z" fill="#00472c" stroke="#00472c" fill-opacity="1" stroke-opacity="1"/><path d="M1710,790L1706,1009L1884,802Z" fill="#00442b" stroke="#00442b" fill-opacity="1" stroke-opacity="1"/><path d="M1884,802L1706,1009L1851,1032Z" fill="#002e22" stroke="#002e22" fill-opacity="1" stroke-opacity="1"/><path d="M1884,802L1851,1032L2046,922Z" fill="#002b21" stroke="#002b21" fill-opacity="1" stroke-opacity="1"/><path d="M1884,802L2046,922L2083,844Z" fill="#003224" stroke="#003224" fill-opacity="1" stroke-opacity="1"/><path d="M2083,844L2046,922L2025,1139Z" fill="#001418" stroke="#001418" fill-opacity="1" stroke-opacity="1"/><path d="M-51,942L-96,1149L90,1152Z" fill="#787d79" stroke="#787d79" fill-opacity="1" stroke-opacity="1"/><path d="M-51,942L90,1152L129,1030Z" fill="#737b77" stroke="#737b77" fill-opacity="1" stroke-opacity="1"/><path d="M129,1030L90,1152L182,1076Z" fill="#6d796d" stroke="#6d796d" fill-opacity="1" stroke-opacity="1"/><path d="M129,1030L182,1076L268,947Z" fill="#69776f" stroke="#69776f" fill-opacity="1" stroke-opacity="1"/><path d="M268,947L182,1076L378,979Z" fill="#64796a" stroke="#64796a" fill-opacity="1" stroke-opacity="1"/><path d="M378,979L182,1076L428,1135Z" fill="#607361" stroke="#607361" fill-opacity="1" stroke-opacity="1"/><path d="M378,979L428,1135L570,1117Z" fill="#576f57" stroke="#576f57" fill-opacity="1" stroke-opacity="1"/><path d="M378,979L570,1117L549,916Z" fill="#54715b" stroke="#54715b" fill-opacity="1" stroke-opacity="1"/><path d="M549,916L570,1117L649,998Z" fill="#4d6d55" stroke="#4d6d55" fill-opacity="1" stroke-opacity="1"/><path d="M649,998L570,1117L631,1135Z" fill="#4b6a4c" stroke="#4b6a4c" fill-opacity="1" stroke-opacity="1"/><path d="M649,998L631,1135L767,1019Z" fill="#46684b" stroke="#46684b" fill-opacity="1" stroke-opacity="1"/><path d="M767,1019L631,1135L790,1087Z" fill="#426645" stroke="#426645" fill-opacity="1" stroke-opacity="1"/><path d="M767,1019L790,1087L977,1070Z" fill="#38613f" stroke="#38613f" fill-opacity="1" stroke-opacity="1"/><path d="M767,1019L977,1070L988,985Z" fill="#325e3f" stroke="#325e3f" fill-opacity="1" stroke-opacity="1"/><path d="M988,985L977,1070L1104,1022Z" fill="#28593a" stroke="#28593a" fill-opacity="1" stroke-opacity="1"/><path d="M1104,1022L977,1070L1152,1107Z" fill="#235734" stroke="#235734" fill-opacity="1" stroke-opacity="1"/><path d="M1104,1022L1152,1107L1219,1120Z" fill="#1d522f" stroke="#1d522f" fill-opacity="1" stroke-opacity="1"/><path d="M1104,1022L1219,1120L1297,937Z" fill="#1b4f32" stroke="#1b4f32" fill-opacity="1" stroke-opacity="1"/><path d="M1297,937L1219,1120L1406,1183Z" fill="#154929" stroke="#154929" fill-opacity="1" stroke-opacity="1"/><path d="M1297,937L1406,1183L1476,993Z" fill="#104429" stroke="#104429" fill-opacity="1" stroke-opacity="1"/><path d="M1476,993L1406,1183L1538,1070Z" fill="#0b3d22" stroke="#0b3d22" fill-opacity="1" stroke-opacity="1"/><path d="M1476,993L1538,1070L1544,960Z" fill="#083b27" stroke="#083b27" fill-opacity="1" stroke-opacity="1"/><path d="M1544,960L1538,1070L1706,1009Z" fill="#033324" stroke="#033324" fill-opacity="1" stroke-opacity="1"/><path d="M1706,1009L1538,1070L1734,1109Z" fill="#002c1d" stroke="#002c1d" fill-opacity="1" stroke-opacity="1"/><path d="M1706,1009L1734,1109L1851,1032Z" fill="#00231b" stroke="#00231b" fill-opacity="1" stroke-opacity="1"/><path d="M1851,1032L1734,1109L1878,1162Z" fill="#001e15" stroke="#001e15" fill-opacity="1" stroke-opacity="1"/><path d="M1851,1032L1878,1162L2025,1139Z" fill="#001510" stroke="#001510" fill-opacity="1" stroke-opacity="1"/><path d="M1851,1032L2025,1139L2046,922Z" fill="#001015" stroke="#001015" fill-opacity="1" stroke-opacity="1"/><path d="M-96,1149L1406,1183L90,1152Z" fill="#566f53" stroke="#566f53" fill-opacity="1" stroke-opacity="1"/><path d="M90,1152L1406,1183L631,1135Z" fill="#446743" stroke="#446743" fill-opacity="1" stroke-opacity="1"/><path d="M90,1152L631,1135L428,1135Z" fill="#5c7259" stroke="#5c7259" fill-opacity="1" stroke-opacity="1"/><path d="M90,1152L428,1135L182,1076Z" fill="#677663" stroke="#677663" fill-opacity="1" stroke-opacity="1"/><path d="M428,1135L631,1135L570,1117Z" fill="#516d4e" stroke="#516d4e" fill-opacity="1" stroke-opacity="1"/><path d="M631,1135L1406,1183L1152,1107Z" fill="#245730" stroke="#245730" fill-opacity="1" stroke-opacity="1"/><path d="M631,1135L1152,1107L790,1087Z" fill="#37613a" stroke="#37613a" fill-opacity="1" stroke-opacity="1"/><path d="M790,1087L1152,1107L977,1070Z" fill="#2c5b37" stroke="#2c5b37" fill-opacity="1" stroke-opacity="1"/><path d="M1152,1107L1406,1183L1219,1120Z" fill="#184c28" stroke="#184c28" fill-opacity="1" stroke-opacity="1"/><path d="M1406,1183L1878,1162L1734,1109Z" fill="#002b18" stroke="#002b18" fill-opacity="1" stroke-opacity="1"/><path d="M1406,1183L1734,1109L1538,1070Z" fill="#06351c" stroke="#06351c" fill-opacity="1" stroke-opacity="1"/></g></svg>