<?xml version="1.0" encoding="utf-8"?>
<!-- Generator: Adobe Illustrator 16.0.0, SVG Export Plug-In . SVG Version: 6.00 Build 0)  -->
<!DOCTYPE svg PUBLIC "-//W3C//DTD SVG 1.1//EN" "http://www.w3.org/Graphics/SVG/1.1/DTD/svg11.dtd">
<svg version="1.1" id="Layer_1" xmlns="http://www.w3.org/2000/svg" xmlns:xlink="http://www.w3.org/1999/xlink" x="0px" y="0px"
	 width="151.678px" height="236.913px" viewBox="0 0 151.678 236.913" enable-background="new 0 0 151.678 236.913"
	 xml:space="preserve">
<g>
	<path fill="#FFFFFF" d="M146.471,15.307c3.754,1.708,3.07,13.313-2.051,13.998h-24.576c0.682,5.803,0.682,11.607,0.682,17.41
		c0,23.554-13.995,54.276-57.35,54.276c-6.145,0-10.924-0.681-15.02-1.022c-4.097,2.389-15.021,8.875-15.021,18.775
		c0,7.852,7.852,14.339,23.896,14.339c11.607,0,25.604-1.025,40.624-1.025c19.116,0,47.791,3.414,47.791,37.55
		c0,37.209-40.622,64.52-85,64.52c-41.988,0-56.668-22.531-56.668-39.599c0-5.462,1.366-9.901,3.756-12.63
		c5.804-6.145,15.361-15.02,23.212-22.872c3.073-3.073,5.804-6.146,2.732-8.193c-13.313-3.414-24.92-15.02-24.92-26.968
		c0-1.707,1.366-3.073,5.12-5.803c5.804-3.756,12.29-9.559,18.094-15.704c1.707-2.047,3.413-4.779,3.413-6.486
		C23.577,89.728,9.581,76.414,9.581,54.566c0-29.358,25.262-51.547,55.643-51.547c12.972,0,24.92,3.414,32.772,6.827
		c10.923,4.78,13.313,5.461,20.822,5.461H146.471z M75.124,153.22c-10.924,0-24.579,0.684-29.359,3.757
		c-8.191,5.121-16.384,15.703-16.384,28.675c0,18.434,14.678,33.794,45.743,33.794c30.381,0,50.522-17.067,50.522-36.526
		c0-20.822-14.337-29.7-38.917-29.7H75.124z M96.29,55.589c0-23.211-9.56-42.67-30.383-42.67c-16.385,0-28.674,15.021-28.674,38.234
		c0,24.237,14.679,39.94,31.064,39.94C86.73,91.093,96.29,76.414,96.29,55.589z"/>
</g>
</svg>
